<?xml version="1.0" encoding="UTF-8" standalone="no"?>
<!-- Created with Inkscape (http://www.inkscape.org/) -->

<svg
   xmlns:dc="http://purl.org/dc/elements/1.1/"
   xmlns:cc="http://creativecommons.org/ns#"
   xmlns:rdf="http://www.w3.org/1999/02/22-rdf-syntax-ns#"
   xmlns:svg="http://www.w3.org/2000/svg"
   xmlns="http://www.w3.org/2000/svg"
   xmlns:xlink="http://www.w3.org/1999/xlink"
   xmlns:sodipodi="http://sodipodi.sourceforge.net/DTD/sodipodi-0.dtd"
   xmlns:inkscape="http://www.inkscape.org/namespaces/inkscape"
   width="200"
   height="200"
   id="svg18416"
   version="1.1"
   inkscape:version="0.92.2 2405546, 2018-03-11"
   sodipodi:docname="folder-public.svg">
  <defs
     id="defs18418">
    <linearGradient
       id="linearGradient903">
      <stop
         id="stop899"
         offset="0"
         style="stop-color:#03b6ec;stop-opacity:1" />
      <stop
         id="stop901"
         offset="1"
         style="stop-color:#13c0f7;stop-opacity:1" />
    </linearGradient>
    <linearGradient
       id="linearGradient19076">
      <stop
         style="stop-color:#3bc1f1;stop-opacity:1;"
         offset="0"
         id="stop19078" />
      <stop
         style="stop-color:#0e95c5;stop-opacity:1;"
         offset="1"
         id="stop19080" />
    </linearGradient>
    <linearGradient
       id="linearGradient18984">
      <stop
         style="stop-color:#78d9fd;stop-opacity:1;"
         offset="0"
         id="stop18986" />
      <stop
         style="stop-color:#7bdeff;stop-opacity:1;"
         offset="1"
         id="stop18988" />
    </linearGradient>
    <linearGradient
       id="linearGradient18973">
      <stop
         style="stop-color:#35cafc;stop-opacity:1;"
         offset="0"
         id="stop18975" />
      <stop
         id="stop18981"
         offset="0.5"
         style="stop-color:#50d4ff;stop-opacity:1;" />
      <stop
         style="stop-color:#4dcbf6;stop-opacity:1;"
         offset="1"
         id="stop18977" />
    </linearGradient>
    <linearGradient
       inkscape:collect="always"
       xlink:href="#linearGradient18973"
       id="linearGradient18979"
       x1="-9.9121208"
       y1="1081.4041"
       x2="-9.9121208"
       y2="1139.7776"
       gradientUnits="userSpaceOnUse" />
    <linearGradient
       inkscape:collect="always"
       xlink:href="#linearGradient18984"
       id="linearGradient18990"
       x1="-26.20083"
       y1="1070.1985"
       x2="-26.20083"
       y2="1082.5807"
       gradientUnits="userSpaceOnUse" />
    <linearGradient
       inkscape:collect="always"
       xlink:href="#linearGradient18973-9"
       id="linearGradient18979-8"
       x1="-9.9121208"
       y1="1081.4041"
       x2="-9.9121208"
       y2="1139.7776"
       gradientUnits="userSpaceOnUse" />
    <linearGradient
       id="linearGradient18973-9">
      <stop
         style="stop-color:#35cafc;stop-opacity:1;"
         offset="0"
         id="stop18975-4" />
      <stop
         id="stop18981-4"
         offset="0.5"
         style="stop-color:#50d4ff;stop-opacity:1;" />
      <stop
         style="stop-color:#4dcbf6;stop-opacity:1;"
         offset="1"
         id="stop18977-5" />
    </linearGradient>
    <linearGradient
       gradientTransform="translate(0,2.9382813e-5)"
       y2="1139.7776"
       x2="-9.9121208"
       y1="1081.4041"
       x1="-9.9121208"
       gradientUnits="userSpaceOnUse"
       id="linearGradient19047"
       xlink:href="#linearGradient18973-9"
       inkscape:collect="always" />
    <linearGradient
       inkscape:collect="always"
       xlink:href="#linearGradient19076"
       id="linearGradient19082"
       x1="-9.6167412"
       y1="1138.386"
       x2="-9.6167412"
       y2="1140.1899"
       gradientUnits="userSpaceOnUse" />
    <linearGradient
       inkscape:collect="always"
       xlink:href="#linearGradient18984"
       id="linearGradient19091"
       gradientUnits="userSpaceOnUse"
       x1="-26.20083"
       y1="1070.1985"
       x2="-26.20083"
       y2="1082.5807" />
    <linearGradient
       inkscape:collect="always"
       xlink:href="#linearGradient18973"
       id="linearGradient19093"
       gradientUnits="userSpaceOnUse"
       x1="-9.9121208"
       y1="1081.4041"
       x2="-9.9121208"
       y2="1139.7776" />
    <linearGradient
       inkscape:collect="always"
       xlink:href="#linearGradient19076"
       id="linearGradient19095"
       gradientUnits="userSpaceOnUse"
       x1="-9.6167412"
       y1="1138.386"
       x2="-9.6167412"
       y2="1140.1899" />
    <linearGradient
       inkscape:collect="always"
       xlink:href="#linearGradient18984"
       id="linearGradient19106"
       gradientUnits="userSpaceOnUse"
       x1="-26.20083"
       y1="1070.1985"
       x2="-26.20083"
       y2="1082.5807" />
    <linearGradient
       inkscape:collect="always"
       xlink:href="#linearGradient18973"
       id="linearGradient19108"
       gradientUnits="userSpaceOnUse"
       x1="-9.9121208"
       y1="1081.4041"
       x2="-9.9121208"
       y2="1139.7776" />
    <linearGradient
       inkscape:collect="always"
       xlink:href="#linearGradient19076"
       id="linearGradient19110"
       gradientUnits="userSpaceOnUse"
       x1="-9.6167412"
       y1="1138.386"
       x2="-9.6167412"
       y2="1140.1899" />
    <clipPath
       clipPathUnits="userSpaceOnUse"
       id="clipPath5833">
      <rect
         style="color:#000000;display:inline;overflow:visible;visibility:visible;opacity:0.16100003;fill:#dddedd;fill-opacity:1;fill-rule:nonzero;stroke:none;stroke-width:0.1;stroke-linecap:round;stroke-linejoin:miter;stroke-miterlimit:4;stroke-dasharray:none;stroke-dashoffset:0;stroke-opacity:1;marker:none;enable-background:accumulate"
         id="rect5835"
         width="162.85715"
         height="118.57143"
         x="15"
         y="1379.505"
         rx="2.8672099"
         ry="2.78354" />
    </clipPath>
    <linearGradient
       gradientTransform="matrix(0.4204684,0,0,0.4204684,402.47104,770.06425)"
       xlink:href="#1"
       id="3"
       x1="-661.85999"
       y1="588.27002"
       x2="-659.32001"
       y2="416.19"
       gradientUnits="userSpaceOnUse" />
    <linearGradient
       id="1">
      <stop
         stop-color="#289bf7"
         id="stop9" />
      <stop
         offset="1"
         stop-color="#71b9f1"
         id="stop11" />
    </linearGradient>
    <linearGradient
       gradientTransform="matrix(0.12614,0,0,0.12614,203.51124,928.19445)"
       xlink:href="#1"
       id="3-3"
       x1="-423.69"
       y1="447.89001"
       x2="-422.39001"
       y2="290.14001"
       gradientUnits="userSpaceOnUse" />
    <linearGradient
       gradientTransform="translate(106.949,-23.09782)"
       xlink:href="#1"
       id="3-35"
       x1="-19.915001"
       y1="1048.7"
       x2="-19.996"
       y2="1025.51"
       gradientUnits="userSpaceOnUse" />
    <linearGradient
       gradientTransform="matrix(1.20001,0,0,1.20001,686.98001,1190.0422)"
       xlink:href="#1"
       id="3-9"
       x1="-481.73999"
       y1="-132.94"
       x2="-482.03"
       y2="-152.13"
       gradientUnits="userSpaceOnUse" />
    <linearGradient
       gradientTransform="matrix(0.12614,0,0,0.12614,160.51,913.26218)"
       xlink:href="#1"
       id="3-0"
       x1="-421.57999"
       y1="442.67001"
       x2="-425.56"
       y2="281.01999"
       gradientUnits="userSpaceOnUse" />
    <linearGradient
       gradientTransform="matrix(0.12614,0,0,0.12614,40.51,973.26219)"
       xlink:href="#1"
       id="3-6"
       x1="-421.57999"
       y1="461.35001"
       x2="-429.45999"
       y2="268.39999"
       gradientUnits="userSpaceOnUse" />
    <linearGradient
       gradientTransform="matrix(0.12614,0,0,0.12614,25.510005,923.26199)"
       xlink:href="#1"
       id="3-61"
       x1="-450.26001"
       y1="441.37"
       x2="-442.51001"
       y2="274.5"
       gradientUnits="userSpaceOnUse" />
    <linearGradient
       gradientTransform="matrix(0.4922,0,0,0.4922,-65.18,1012.2742)"
       xlink:href="#1"
       id="3-92"
       x1="167.58"
       y1="26.964001"
       x2="167.7"
       y2="-19.476"
       gradientUnits="userSpaceOnUse" />
    <linearGradient
       gradientTransform="matrix(0.12614,0,0,0.12614,27.280932,947.55206)"
       xlink:href="#1"
       id="3-2"
       x1="-429.17999"
       y1="455.73999"
       x2="-429.69"
       y2="268.01001"
       gradientUnits="userSpaceOnUse" />
    <linearGradient
       gradientTransform="matrix(0.12614,0,0,0.12614,120.51,953.2622)"
       xlink:href="#1"
       id="3-97"
       x1="-424.64999"
       y1="459.85999"
       x2="-425.09"
       y2="276.04999"
       gradientUnits="userSpaceOnUse" />
    <linearGradient
       gradientTransform="matrix(0.54165,0,0,0.54166,-14.491,1020.4122)"
       gradientUnits="userSpaceOnUse"
       y2="-27.875"
       x2="0"
       y1="22.120001"
       id="3-29"
       xlink:href="#1" />
    <linearGradient
       gradientTransform="matrix(1.5285575,0,0,1.5285575,-2260.4687,4679.2612)"
       xlink:href="#1"
       id="5"
       gradientUnits="userSpaceOnUse"
       x1="540.82001"
       y1="540.47998"
       x2="542.13"
       y2="493.92999" />
    <linearGradient
       xlink:href="#1"
       id="linearGradient44"
       gradientUnits="userSpaceOnUse"
       x1="540.82001"
       y1="540.47998"
       x2="542.13"
       y2="493.92999" />
    <linearGradient
       gradientTransform="matrix(0.20826,0,0,0.20826,-53.371,1000.3442)"
       xlink:href="#1"
       id="3-94"
       x1="315.51999"
       y1="147.19"
       x2="310.67001"
       y2="31.120001"
       gradientUnits="userSpaceOnUse" />
    <linearGradient
       gradientTransform="matrix(1.499995,0,0,1.499995,-80.612185,947.61884)"
       xlink:href="#1"
       id="3-4"
       x1="68.75"
       y1="52.049999"
       x2="68.400002"
       y2="36.922001"
       gradientUnits="userSpaceOnUse" />
    <filter
       style="color-interpolation-filters:sRGB"
       inkscape:label="Greyscale"
       id="filter3721">
      <feColorMatrix
         values="0.21 0.72 0.072 -10 0 0.21 0.72 0.072 -10 0 0.21 0.72 0.072 -10 0 0 0 0 1 0 "
         id="feColorMatrix3719" />
    </filter>
    <linearGradient
       gradientTransform="matrix(2.7084462,0,0,2.7084462,90.301445,-1810.8508)"
       xlink:href="#1"
       id="3-610"
       x1="-19.915001"
       y1="1048.7"
       x2="-19.996"
       y2="1025.51"
       gradientUnits="userSpaceOnUse" />
    <linearGradient
       gradientTransform="matrix(0.38553463,0,0,0.38553463,-76.247369,709.75512)"
       xlink:href="#1"
       id="3-20"
       x1="324.38"
       y1="813.44"
       x2="326.06"
       y2="642.52002"
       gradientUnits="userSpaceOnUse" />
    <linearGradient
       gradientTransform="matrix(0.40885559,0,0,0.40885559,221.30325,832.03053)"
       xlink:href="#1"
       id="3-5"
       x1="-419.39001"
       y1="456.95999"
       x2="-425.14001"
       y2="271.84"
       gradientUnits="userSpaceOnUse" />
    <linearGradient
       gradientTransform="matrix(5.4180265,0,0,5.4180265,90.27012,883.31121)"
       xlink:href="#1"
       id="3-65"
       x1="-9"
       y1="24"
       x2="-9.1639996"
       y2="11.273"
       gradientUnits="userSpaceOnUse" />
    <linearGradient
       gradientTransform="matrix(0.12045,0,0,0.12045,1.6389994,959.74418)"
       xlink:href="#1"
       id="3-37"
       x1="90.089996"
       y1="468.95001"
       x2="82.924004"
       y2="268.14999"
       gradientUnits="userSpaceOnUse" />
    <linearGradient
       gradientTransform="matrix(0.39484393,0,0,0.39484393,235.06327,811.81291)"
       xlink:href="#1"
       id="3-25"
       x1="-423.69"
       y1="447.89001"
       x2="-422.39001"
       y2="290.14001"
       gradientUnits="userSpaceOnUse" />
    <linearGradient
       gradientTransform="matrix(0.11983,0,0,0.11862,244.68,860.23218)"
       xlink:href="#1"
       id="4"
       x1="-567.62"
       y1="933.35999"
       x2="-568.21002"
       y2="735.34003"
       gradientUnits="userSpaceOnUse" />
  </defs>
  <sodipodi:namedview
     id="base"
     pagecolor="#ffffff"
     bordercolor="#666666"
     borderopacity="1.0"
     inkscape:pageopacity="0.0"
     inkscape:pageshadow="2"
     inkscape:zoom="2.8"
     inkscape:cx="118.17807"
     inkscape:cy="110.2381"
     inkscape:document-units="px"
     inkscape:current-layer="layer1"
     showgrid="true"
     inkscape:window-width="1280"
     inkscape:window-height="751"
     inkscape:window-x="0"
     inkscape:window-y="24"
     inkscape:window-maximized="1"
     inkscape:pagecheckerboard="true">
    <inkscape:grid
       type="xygrid"
       id="grid888" />
  </sodipodi:namedview>
  <metadata
     id="metadata18421">
    <rdf:RDF>
      <cc:Work
         rdf:about="">
        <dc:format>image/svg+xml</dc:format>
        <dc:type
           rdf:resource="http://purl.org/dc/dcmitype/StillImage" />
        <dc:title></dc:title>
      </cc:Work>
    </rdf:RDF>
  </metadata>
  <g
     inkscape:label="Layer 1"
     inkscape:groupmode="layer"
     id="layer1"
     transform="translate(0,-852.36218)">
    <g
       id="g19098"
       transform="matrix(2.213863,0,0,2.213863,-104.07972,-1155.9649)">
      <g
         transform="translate(96.469568,-152.02796)"
         id="g19084">
        <path
           style="color:#000000;fill:url(#linearGradient19106);fill-opacity:1;fill-rule:nonzero;stroke:none;stroke-width:0.40000001;marker:none;visibility:visible;display:inline;overflow:visible;enable-background:accumulate"
           d="m -44.762384,1070.2064 c 7.37694,0 14.753879,0 22.130819,0 3.287123,0 4.652547,7.0711 7.727809,7.0711 16.8372138,0 34.684579,0 51.521792,0 1.818779,0 3.282995,1.4642 3.282995,3.283 l 0,50.5076 c 0,1.8188 -1.464216,-2.0203 -3.282995,-2.0203 l -81.38042,0 c -1.81878,0 -3.282996,-1.4642 -3.282996,-3.283 l 0,-52.2754 c 0,-1.8188 1.464216,-3.283 3.282996,-3.283 z"
           id="rect18953-5"
           inkscape:connector-curvature="0"
           sodipodi:nodetypes="sccssssssss" />
        <path
           id="rect18953"
           d="m -44.762384,1081.2778 81.38042,0 c 1.818779,0 3.282995,1.4642 3.282995,3.283 l 0,52.2754 c 0,1.8188 -1.464216,3.283 -3.282995,3.283 l -81.38042,0 c -1.81878,0 -3.282996,-1.4642 -3.282996,-3.283 l 0,-52.2754 c 0,-1.8188 1.464216,-3.283 3.282996,-3.283 z"
           style="color:#000000;fill:url(#linearGradient19108);fill-opacity:1;fill-rule:nonzero;stroke:none;stroke-width:0.40000001;marker:none;visibility:visible;display:inline;overflow:visible;enable-background:accumulate"
           inkscape:connector-curvature="0" />
        <path
           inkscape:connector-curvature="0"
           style="font-size:medium;font-style:normal;font-variant:normal;font-weight:normal;font-stretch:normal;text-indent:0;text-align:start;text-decoration:none;line-height:normal;letter-spacing:normal;word-spacing:normal;text-transform:none;direction:ltr;block-progression:tb;writing-mode:lr-tb;text-anchor:start;baseline-shift:baseline;opacity:0.97607655;color:#000000;fill:#3bc1f1;fill-opacity:1;fill-rule:nonzero;stroke:none;stroke-width:1px;marker:none;visibility:visible;display:inline;overflow:visible;enable-background:accumulate;font-family:Sans;-inkscape-font-specification:Sans"
           d="m -48.03125,1134.0809 0,1 87.9375,0 0,-1 -87.9375,0 z"
           id="path19074" />
        <path
           inkscape:connector-curvature="0"
           style="font-size:medium;font-style:normal;font-variant:normal;font-weight:normal;font-stretch:normal;text-indent:0;text-align:start;text-decoration:none;line-height:normal;letter-spacing:normal;word-spacing:normal;text-transform:none;direction:ltr;block-progression:tb;writing-mode:lr-tb;text-anchor:start;baseline-shift:baseline;opacity:0.97607655;color:#000000;fill:#3bc1f1;fill-opacity:1;fill-rule:nonzero;stroke:none;stroke-width:1px;marker:none;visibility:visible;display:inline;overflow:visible;enable-background:accumulate;font-family:Sans;-inkscape-font-specification:Sans"
           d="m -48.03125,1136.2997 0,0.5312 c 0,0.162 0.0088,0.3132 0.03125,0.4688 l 87.875,0 c 0.02244,-0.1556 0.03125,-0.3068 0.03125,-0.4688 l 0,-0.5312 -87.9375,0 z"
           id="path19072" />
        <path
           inkscape:connector-curvature="0"
           style="font-size:medium;font-style:normal;font-variant:normal;font-weight:normal;font-stretch:normal;text-indent:0;text-align:start;text-decoration:none;line-height:normal;letter-spacing:normal;word-spacing:normal;text-transform:none;direction:ltr;block-progression:tb;writing-mode:lr-tb;text-anchor:start;baseline-shift:baseline;opacity:0.97607655;color:#000000;fill:url(#linearGradient19110);fill-opacity:1;fill-rule:nonzero;stroke:none;stroke-width:1px;marker:none;visibility:visible;display:inline;overflow:visible;enable-background:accumulate;font-family:Sans;-inkscape-font-specification:Sans"
           d="m -47.75,1138.1747 c 0.511971,1.1442 1.661176,1.9375 3,1.9375 l 81.375,0 c 1.33942,0 2.488367,-0.7925 3,-1.9375 l -87.375,0 z"
           id="path18992" />
      </g>
    </g>
    <path
       inkscape:connector-curvature="0"
       style="fill:#00b8f8;stroke:none;stroke-width:0.32288647"
       d="m 98.78846,931.99554 c -0.62504,-0.002 -1.2478,0.23832 -1.7281,0.71638 l -30.13254,29.96962 c -0.96059,0.95538 -0.96124,2.50125 -0.005,3.46181 l 29.96661,30.12705 c 0.95541,0.9605 2.50147,0.967 3.46176,0.011 l 30.12926,-29.9762 c 0.96061,-0.95538 0.96679,-2.49581 0.0108,-3.45634 l -29.97351,-30.1265 c -0.47771,-0.48025 -1.10307,-0.72603 -1.72813,-0.72763 m -5.24113,16.7244 c 0.2589,-10e-4 0.52055,0.0271 0.78439,0.0796 2.11072,0.41986 3.4838,2.46529 3.06386,4.57591 -0.41961,2.11061 -2.47062,3.48364 -4.58235,3.06411 -2.10975,-0.41989 -3.48316,-2.47109 -3.06387,-4.58171 0.36705,-1.84688 1.98515,-3.12805 3.79732,-3.13799 m 4.95102,7.61175 c 0.2516,0.005 0.49975,0.0384 0.73895,0.0967 l 5.36056,0.98336 c 0.15816,0.029 0.31026,0.0775 0.45466,0.14787 l 3.9041,1.8928 c 0.88368,0.42888 1.253,1.49254 0.82431,2.376 -0.30766,0.63383 -0.94309,1.00616 -1.60317,1.00616 -0.26026,0 -0.52283,-0.0604 -0.77304,-0.18172 l -3.68926,-1.79066 -1.63237,-0.29556 1.25625,5.91747 c 0.0244,0.11889 0.0444,0.23995 0.0569,0.35819 l 2.27821,5.86092 4.80334,4.02464 c 0.89603,0.75143 1.01318,2.08846 0.26162,2.98443 -0.41897,0.49956 -1.02128,0.75593 -1.6259,0.75593 -0.47998,0 -0.96188,-0.16196 -1.35848,-0.49442 l -5.21841,-4.37707 c -0.27294,-0.22884 -0.48486,-0.52041 -0.61401,-0.85258 l -1.6259,-4.18272 c -0.0355,0.003 -0.0726,0.005 -0.10806,0.005 L 97,973.36218 l -0.90964,5.97433 c -0.15979,1.0479 -1.06315,1.80188 -2.09193,1.80188 -0.10617,0 -0.21585,-0.005 -0.32388,-0.0217 -1.15596,-0.1763 -1.9504,-1.25993 -1.77355,-2.41581 l 1.02875,-6.7418 c 0.0753,-0.49406 0.32323,-0.94414 0.69906,-1.27344 l 3.09796,-2.71713 c -0.005,-0.0271 -0.0108,-0.0479 -0.0163,-0.0739 l -1.20498,-5.67879 -1.6087,1.25641 c -0.16845,0.13135 -0.35892,0.23183 -0.56275,0.29555 l -4.57571,1.4325 c -0.17685,0.0555 -0.35278,0.0796 -0.52865,0.0796 -0.75682,0 -1.46137,-0.48445 -1.69956,-1.24484 -0.29371,-0.93741 0.22776,-1.93393 1.16538,-2.22821 l 4.26917,-1.33576 4.26917,-3.33686 c 0.0355,-0.0276 0.071,-0.0496 0.10806,-0.0739 0.3953,-0.31226 0.86651,-0.54774 1.39256,-0.65953 0.25674,-0.0547 0.51018,-0.0734 0.76169,-0.0682"
       id="path25" />
  </g>
</svg>
