<?xml version="1.0" encoding="UTF-8" standalone="no"?>
<!-- Created with Inkscape (http://www.inkscape.org/) -->

<svg
   xmlns:dc="http://purl.org/dc/elements/1.1/"
   xmlns:cc="http://creativecommons.org/ns#"
   xmlns:rdf="http://www.w3.org/1999/02/22-rdf-syntax-ns#"
   xmlns:svg="http://www.w3.org/2000/svg"
   xmlns="http://www.w3.org/2000/svg"
   xmlns:xlink="http://www.w3.org/1999/xlink"
   xmlns:sodipodi="http://sodipodi.sourceforge.net/DTD/sodipodi-0.dtd"
   xmlns:inkscape="http://www.inkscape.org/namespaces/inkscape"
   width="64mm"
   height="64mm"
   viewBox="0 0 179.2 179.2"
   id="svg2"
   version="1.1"
   inkscape:version="0.92.2 2405546, 2018-03-11"
   sodipodi:docname="user-trash.svg">
  <defs
     id="defs4">
    <linearGradient
       inkscape:collect="always"
       id="linearGradient4761">
      <stop
         style="stop-color:#fbfbfc;stop-opacity:1"
         offset="0"
         id="stop4763" />
      <stop
         id="stop4765"
         offset="0.25423759"
         style="stop-color:#ccced2;stop-opacity:1" />
      <stop
         style="stop-color:#f3f4f5;stop-opacity:1"
         offset="0.74363941"
         id="stop4767" />
      <stop
         style="stop-color:#d6d6db;stop-opacity:1"
         offset="1"
         id="stop4769" />
    </linearGradient>
    <linearGradient
       id="linearGradient4685"
       inkscape:collect="always">
      <stop
         id="stop4751"
         offset="0"
         style="stop-color:#d9dadd;stop-opacity:1" />
      <stop
         style="stop-color:#e3e4e6;stop-opacity:1"
         offset="0.25423759"
         id="stop4753" />
      <stop
         id="stop4755"
         offset="0.74363941"
         style="stop-color:#d8dbde;stop-opacity:1" />
      <stop
         id="stop4757"
         offset="1"
         style="stop-color:#f7f7f8;stop-opacity:1" />
    </linearGradient>
    <clipPath
       clipPathUnits="userSpaceOnUse"
       id="clipPath4229">
      <path
         style="color:#000000;display:inline;overflow:visible;visibility:visible;opacity:0.69100001;fill:#ffffff;fill-opacity:1;fill-rule:nonzero;stroke:none;stroke-width:4.81500006;stroke-linecap:round;stroke-linejoin:miter;stroke-miterlimit:4;stroke-dasharray:none;stroke-dashoffset:0;stroke-opacity:1;marker:none;enable-background:accumulate"
         d="m 45.101638,268.00145 3.77548,30.73559 c -5e-6,2.84279 5.376939,5.14749 12.010119,5.14749 6.633181,0 12.010644,-2.3047 12.010636,-5.14749 l 3.741891,-30.73559 c -7.94e-4,2.17711 -7.06062,3.9419 -15.769063,3.94188 -8.708442,2e-5 -15.76829,-1.76477 -15.769063,-3.94188 z m 31.538126,0 c 0,-0.0854 -0.01476,-0.17017 -0.03617,-0.25425 0.02299,0.0846 0.03506,0.16942 0.03617,0.25425 z"
         id="path4231"
         inkscape:connector-curvature="0"
         sodipodi:nodetypes="ccsccscccc" />
    </clipPath>
    <clipPath
       clipPathUnits="userSpaceOnUse"
       id="clipPath4493">
      <path
         style="color:#000000;display:inline;overflow:visible;visibility:visible;opacity:0.69100001;fill:#ffffff;fill-opacity:1;fill-rule:nonzero;stroke:none;stroke-width:4.81500006;stroke-linecap:round;stroke-linejoin:miter;stroke-miterlimit:4;stroke-dasharray:none;stroke-dashoffset:0;stroke-opacity:1;marker:none;enable-background:accumulate"
         d="m 45.101638,268.00145 3.77548,30.73559 c -5e-6,2.84279 5.376939,5.14749 12.010119,5.14749 6.633181,0 12.010644,-2.3047 12.010636,-5.14749 l 3.741891,-30.73559 c -7.94e-4,2.17711 -7.06062,3.9419 -15.769063,3.94188 -8.708442,2e-5 -15.76829,-1.76477 -15.769063,-3.94188 z m 31.538126,0 c 0,-0.0854 -0.01476,-0.17017 -0.03617,-0.25425 0.02299,0.0846 0.03506,0.16942 0.03617,0.25425 z"
         id="path4495"
         inkscape:connector-curvature="0"
         sodipodi:nodetypes="ccsccscccc" />
    </clipPath>
    <linearGradient
       inkscape:collect="always"
       xlink:href="#linearGradient4685"
       id="linearGradient4691"
       x1="170.46289"
       y1="713.63477"
       x2="289.66211"
       y2="713.63477"
       gradientUnits="userSpaceOnUse"
       gradientTransform="matrix(1.1115163,0,0,1.1115163,-167.02091,-603.30556)" />
    <linearGradient
       inkscape:collect="always"
       xlink:href="#linearGradient4761"
       id="linearGradient4747"
       x1="170.46289"
       y1="704.73242"
       x2="289.66211"
       y2="704.73242"
       gradientUnits="userSpaceOnUse"
       gradientTransform="matrix(1.1115163,0,0,1.1115163,-167.02091,-603.30552)" />
    <clipPath
       clipPathUnits="userSpaceOnUse"
       id="clipPath4229-3">
      <path
         style="color:#000000;display:inline;overflow:visible;visibility:visible;opacity:0.69100001;fill:#ffffff;fill-opacity:1;fill-rule:nonzero;stroke:none;stroke-width:4.81500006;stroke-linecap:round;stroke-linejoin:miter;stroke-miterlimit:4;stroke-dasharray:none;stroke-dashoffset:0;stroke-opacity:1;marker:none;enable-background:accumulate"
         d="m 45.101638,268.00145 3.77548,30.73559 c -5e-6,2.84279 5.376939,5.14749 12.010119,5.14749 6.633181,0 12.010644,-2.3047 12.010636,-5.14749 l 3.741891,-30.73559 c -7.94e-4,2.17711 -7.06062,3.9419 -15.769063,3.94188 -8.708442,2e-5 -15.76829,-1.76477 -15.769063,-3.94188 z m 31.538126,0 c 0,-0.0854 -0.01476,-0.17017 -0.03617,-0.25425 0.02299,0.0846 0.03506,0.16942 0.03617,0.25425 z"
         id="path4231-2"
         inkscape:connector-curvature="0"
         sodipodi:nodetypes="ccsccscccc" />
    </clipPath>
    <filter
       inkscape:collect="always"
       style="color-interpolation-filters:sRGB"
       id="filter4481-3"
       x="-0.084444419"
       width="1.1688888"
       y="-0.18726517"
       height="1.3745303">
      <feGaussianBlur
         inkscape:collect="always"
         stdDeviation="1.0791004"
         id="feGaussianBlur4483-5" />
    </filter>
    <clipPath
       clipPathUnits="userSpaceOnUse"
       id="clipPath4493-9">
      <path
         style="color:#000000;display:inline;overflow:visible;visibility:visible;opacity:0.69100001;fill:#ffffff;fill-opacity:1;fill-rule:nonzero;stroke:none;stroke-width:4.81500006;stroke-linecap:round;stroke-linejoin:miter;stroke-miterlimit:4;stroke-dasharray:none;stroke-dashoffset:0;stroke-opacity:1;marker:none;enable-background:accumulate"
         d="m 45.101638,268.00145 3.77548,30.73559 c -5e-6,2.84279 5.376939,5.14749 12.010119,5.14749 6.633181,0 12.010644,-2.3047 12.010636,-5.14749 l 3.741891,-30.73559 c -7.94e-4,2.17711 -7.06062,3.9419 -15.769063,3.94188 -8.708442,2e-5 -15.76829,-1.76477 -15.769063,-3.94188 z m 31.538126,0 c 0,-0.0854 -0.01476,-0.17017 -0.03617,-0.25425 0.02299,0.0846 0.03506,0.16942 0.03617,0.25425 z"
         id="path4495-0"
         inkscape:connector-curvature="0"
         sodipodi:nodetypes="ccsccscccc" />
    </clipPath>
    <filter
       inkscape:collect="always"
       style="color-interpolation-filters:sRGB"
       id="filter4673-6"
       x="-0.36660698"
       width="1.733214"
       y="-0.59061521"
       height="2.1812303">
      <feGaussianBlur
         inkscape:collect="always"
         stdDeviation="1.6947276"
         id="feGaussianBlur4675-1" />
    </filter>
    <clipPath
       clipPathUnits="userSpaceOnUse"
       id="clipPath5052">
      <g
         transform="translate(-3.4017833,-18.615328)"
         id="g5054">
        <path
           style="color:#000000;display:inline;overflow:visible;visibility:visible;opacity:0.91500005;fill:url(#linearGradient5062);fill-opacity:1;fill-rule:nonzero;stroke:none;stroke-width:4.81500006;stroke-linecap:round;stroke-linejoin:miter;stroke-miterlimit:4;stroke-dasharray:none;stroke-dashoffset:0;stroke-opacity:1;marker:none;enable-background:accumulate"
           d="m 170.46289,646.30469 14.26953,116.16601 c -2e-5,10.74441 20.32229,19.45508 45.39258,19.45508 25.07029,0 45.39456,-8.71067 45.39453,-19.45508 l 14.14258,-116.16601 c -0.003,8.22845 -26.68581,14.89851 -59.59961,14.89843 -32.9138,8e-5 -59.59669,-6.66998 -59.59961,-14.89843 z m 119.19922,0 c 0,-0.3229 -0.0558,-0.64315 -0.13672,-0.96094 0.0869,0.31986 0.13251,0.64034 0.13672,0.96094 z"
           id="path5056"
           inkscape:connector-curvature="0"
           sodipodi:nodetypes="ccsccscccc"
           transform="matrix(0.26458333,0,0,0.26458333,0,97.000003)" />
        <path
           style="opacity:0.72899996;fill:#ffffff;fill-opacity:1;fill-rule:evenodd;stroke:none;stroke-width:0.26458332px;stroke-linecap:butt;stroke-linejoin:miter;stroke-opacity:1;filter:url(#filter4481-3)"
           d="m 46.504896,302.14494 c 7.684,-6.01356 8.753078,-2.80633 14.766642,-2.20497 6.013564,0.60135 15.902538,-4.27632 15.902538,-4.27632 l -1.00226,13.63075 c 0,0 -28.531024,2.07134 -29.66692,-7.14946 z"
           id="path5058"
           inkscape:connector-curvature="0"
           clip-path="url(#clipPath4229-3)" />
        <path
           style="opacity:0.48300003;fill:#a4a4a4;fill-opacity:1;fill-rule:evenodd;stroke:none;stroke-width:0.26458332px;stroke-linecap:butt;stroke-linejoin:miter;stroke-opacity:1;filter:url(#filter4673-6)"
           d="m 60.737,305.41899 c 6.748555,-6.34765 8.15172,-7.48355 10.757599,-1.67043 2.605876,5.81311 -10.757599,1.67043 -10.757599,1.67043 z"
           id="path5060"
           inkscape:connector-curvature="0"
           clip-path="url(#clipPath4493-9)" />
      </g>
    </clipPath>
    <linearGradient
       inkscape:collect="always"
       xlink:href="#linearGradient4685"
       id="linearGradient5062"
       gradientUnits="userSpaceOnUse"
       x1="170.46289"
       y1="713.63477"
       x2="289.66211"
       y2="713.63477" />
    <filter
       inkscape:collect="always"
       style="color-interpolation-filters:sRGB"
       id="filter5236"
       x="-0.24031065"
       width="1.4806213"
       y="-0.031949174"
       height="1.0638984">
      <feGaussianBlur
         inkscape:collect="always"
         stdDeviation="0.50623594"
         id="feGaussianBlur5238" />
    </filter>
  </defs>
  <sodipodi:namedview
     id="base"
     pagecolor="#ffffff"
     bordercolor="#666666"
     borderopacity="1.0"
     inkscape:pageopacity="0.0"
     inkscape:pageshadow="2"
     inkscape:zoom="2"
     inkscape:cx="291.16917"
     inkscape:cy="90.343884"
     inkscape:document-units="mm"
     inkscape:current-layer="layer1"
     showgrid="false"
     inkscape:window-width="1280"
     inkscape:window-height="751"
     inkscape:window-x="0"
     inkscape:window-y="24"
     inkscape:window-maximized="1"
     scale-x="2.8" />
  <metadata
     id="metadata7">
    <rdf:RDF>
      <cc:Work
         rdf:about="">
        <dc:format>image/svg+xml</dc:format>
        <dc:type
           rdf:resource="http://purl.org/dc/dcmitype/StillImage" />
        <dc:title />
      </cc:Work>
    </rdf:RDF>
  </metadata>
  <g
     inkscape:label="Layer 1"
     inkscape:groupmode="layer"
     id="layer1"
     transform="translate(0,-92.200002)">
    <path
       style="color:#000000;display:inline;overflow:visible;visibility:visible;opacity:0.54199997;fill:url(#linearGradient4747);fill-opacity:1;fill-rule:nonzero;stroke:none;stroke-width:4.86096478;stroke-linecap:round;stroke-linejoin:miter;stroke-miterlimit:4;stroke-dasharray:none;stroke-dashoffset:0;stroke-opacity:1;marker:none;enable-background:accumulate"
       d="m 88.697302,98.510658 c -36.586213,0 -66.245878,7.415452 -66.245936,16.562012 l 0.11725,0.94871 c 1.42e-4,6.8e-4 -1.56e-4,0.001 0,0.002 1.973574,8.70361 30.820911,15.60906 66.128706,15.60897 35.314028,9e-5 64.166358,-6.90755 66.130868,-15.61333 l 0.11507,-0.94653 c -5e-5,-9.14656 -29.65972,-16.562013 -66.245938,-16.562013 z M 38.572699,246.40529 c 0.172115,0.72627 0.428536,1.44161 0.764167,2.14486 -0.335745,-0.70321 -0.591926,-1.41863 -0.764167,-2.14486 z m 0.764167,2.14705 c 0.504083,1.05576 1.187469,2.08261 2.036332,3.07618 -0.848376,-0.99307 -1.532345,-2.02102 -2.036332,-3.07618 z m 2.93944,4.05746 c 0.638599,0.64716 1.348136,1.27773 2.125339,1.89087 -0.776702,-0.61281 -1.487071,-1.24408 -2.125339,-1.89087 z m 92.980944,0.002 c -0.63778,0.64603 -1.34726,1.27656 -2.12317,1.88869 0.77674,-0.61281 1.48486,-1.24195 2.12317,-1.88869 z m -89.639884,2.79396 c 0.842387,0.59411 1.750005,1.17116 2.718005,1.7259 -0.968508,-0.55508 -1.875253,-1.13141 -2.718005,-1.7259 z m 4.21595,2.54216 c 1.542382,0.801 3.216274,1.55323 5.008335,2.25127 -1.792007,-0.69808 -3.466007,-1.45027 -5.008335,-2.25127 z m 5.008335,2.25127 c 1.194703,0.46535 2.441058,0.907 3.736165,1.32211 -1.295061,-0.41507 -2.541495,-0.85671 -3.736165,-1.32211 z m 72.860759,-2.25127 c -1.54243,0.801 -3.2184,1.55319 -5.01051,2.25127 1.79206,-0.69804 3.46812,-1.45027 5.01051,-2.25127 z m -5.01051,2.25127 c -1.19473,0.4654 -2.44104,0.90696 -3.73617,1.32211 1.29511,-0.41507 2.54147,-0.85676 3.73617,-1.32211 z"
       id="path4147-0"
       inkscape:connector-curvature="0" />
    <path
       style="color:#000000;display:inline;overflow:visible;visibility:visible;opacity:0.91500005;fill:url(#linearGradient4691);fill-opacity:1;fill-rule:nonzero;stroke:none;stroke-width:5.35195112;stroke-linecap:round;stroke-linejoin:miter;stroke-miterlimit:4;stroke-dasharray:none;stroke-dashoffset:0;stroke-opacity:1;marker:none;enable-background:accumulate"
       d="m 22.451371,115.07264 15.860815,129.12041 c -2.2e-5,11.94259 22.588557,21.62464 50.454593,21.62464 27.866031,0 50.456791,-9.68205 50.456761,-21.62464 l 15.71971,-129.12041 c -0.003,9.14605 -29.66172,16.55993 -66.245941,16.55985 -36.584225,8e-5 -66.242693,-7.4138 -66.245938,-16.55985 z m 132.491879,0 c 0,-0.35891 -0.062,-0.71487 -0.15197,-1.0681 0.0966,0.35553 0.14729,0.71175 0.15197,1.0681 z"
       id="path4147-0-0"
       inkscape:connector-curvature="0"
       sodipodi:nodetypes="ccsccscccc" />
    <path
       style="opacity:0.06400003;fill:#9d9da9;fill-opacity:1;fill-rule:evenodd;stroke:none;stroke-width:0.26458332px;stroke-linecap:butt;stroke-linejoin:miter;stroke-opacity:1;filter:url(#filter5236)"
       d="m 44.938064,285.23274 c 3.496279,-11.62277 -4.515492,-41.01985 -4.15889,-37.78039 z"
       id="path4776"
       inkscape:connector-curvature="0"
       clip-path="url(#clipPath5052)"
       sodipodi:nodetypes="csc"
       transform="matrix(4.2010065,0,0,4.2010065,-152.72999,-932.60005)" />
  </g>
</svg>
