<?xml version="1.0" encoding="UTF-8" standalone="no"?>
<!-- Generator: flash2svg, http://dissentgraphics.com/tools/flash2svg -->

<svg
   xmlns:dc="http://purl.org/dc/elements/1.1/"
   xmlns:cc="http://creativecommons.org/ns#"
   xmlns:rdf="http://www.w3.org/1999/02/22-rdf-syntax-ns#"
   xmlns:svg="http://www.w3.org/2000/svg"
   xmlns="http://www.w3.org/2000/svg"
   xmlns:xlink="http://www.w3.org/1999/xlink"
   xmlns:sodipodi="http://sodipodi.sourceforge.net/DTD/sodipodi-0.dtd"
   xmlns:inkscape="http://www.inkscape.org/namespaces/inkscape"
   id="Calculator"
   image-rendering="optimizeSpeed"
   version="1.1"
   style="background-color:#FFFFFF"
   x="0px"
   y="0px"
   width="1024px"
   height="1024px"
   viewBox="0 0 1024 1024"
   enable-background="new 0 0 1024 1024"
   sodipodi:docname="accessories-calculator.svg"
   inkscape:export-filename="/home/unc/OSX/calculator-app.png"
   inkscape:export-xdpi="4.5"
   inkscape:export-ydpi="4.5"
   inkscape:version="0.92.2 (5c3e80d, 2017-08-06)">
  <metadata
     id="metadata33">
    <rdf:RDF>
      <cc:Work
         rdf:about="">
        <dc:format>image/svg+xml</dc:format>
        <dc:type
           rdf:resource="http://purl.org/dc/dcmitype/StillImage" />
        <dc:title />
      </cc:Work>
    </rdf:RDF>
  </metadata>
  <sodipodi:namedview
     pagecolor="#ffffff"
     bordercolor="#666666"
     borderopacity="1"
     objecttolerance="10"
     gridtolerance="10"
     guidetolerance="10"
     inkscape:pageopacity="0"
     inkscape:pageshadow="2"
     inkscape:window-width="1440"
     inkscape:window-height="838"
     id="namedview31"
     showgrid="true"
     inkscape:pagecheckerboard="true"
     inkscape:zoom="0.60253906"
     inkscape:cx="512"
     inkscape:cy="512"
     inkscape:window-x="0"
     inkscape:window-y="25"
     inkscape:window-maximized="1"
     inkscape:current-layer="Calculator"
     showguides="true"
     inkscape:guide-bbox="true">
    <inkscape:grid
       type="xygrid"
       id="grid845" />
  </sodipodi:namedview>
  <defs
     transform="matrix(1 0 0 1 0 0) "
     id="defs2">
    <linearGradient
       id="linearGradient882"
       inkscape:collect="always">
      <stop
         id="stop878"
         offset="0"
         style="stop-color:#2f5fdd;stop-opacity:1" />
      <stop
         id="stop880"
         offset="1"
         style="stop-color:#1a7fd4;stop-opacity:1" />
    </linearGradient>
    <linearGradient
       inkscape:collect="always"
       id="linearGradient854">
      <stop
         style="stop-color:#111111;stop-opacity:1"
         offset="0"
         id="stop850" />
      <stop
         style="stop-color:#3b3b3b;stop-opacity:1"
         offset="1"
         id="stop852" />
    </linearGradient>
    <linearGradient
       id="linearGradient840"
       inkscape:collect="always">
      <stop
         id="stop835"
         offset="0"
         style="stop-color:#ffffff;stop-opacity:1" />
      <stop
         id="stop838"
         offset="1"
         style="stop-color:#d7d7d7;stop-opacity:1" />
    </linearGradient>
    <linearGradient
       inkscape:collect="always"
       id="linearGradient851">
      <stop
         style="stop-color:#fec589;stop-opacity:1"
         offset="0"
         id="stop847" />
      <stop
         style="stop-color:#f34f17;stop-opacity:1"
         offset="1"
         id="stop849" />
    </linearGradient>
    <linearGradient
       inkscape:collect="always"
       xlink:href="#linearGradient840"
       id="linearGradient843"
       x1="520"
       y1="4"
       x2="520.03137"
       y2="1026.0078"
       gradientUnits="userSpaceOnUse" />
    <linearGradient
       inkscape:collect="always"
       xlink:href="#linearGradient851"
       id="linearGradient4661"
       gradientUnits="userSpaceOnUse"
       x1="520"
       y1="4"
       x2="520"
       y2="1024" />
    <linearGradient
       inkscape:collect="always"
       xlink:href="#linearGradient854"
       id="linearGradient856"
       x1="520"
       y1="4"
       x2="520"
       y2="1024"
       gradientUnits="userSpaceOnUse" />
    <linearGradient
       inkscape:collect="always"
       xlink:href="#linearGradient882"
       id="linearGradient876"
       gradientUnits="userSpaceOnUse"
       x1="520"
       y1="4"
       x2="520"
       y2="1024"
       gradientTransform="matrix(1.0892857,0,0,1.0892857,-45.669623,-45.75894)" />
    <linearGradient
       inkscape:collect="always"
       xlink:href="#linearGradient882"
       id="linearGradient890"
       x1="760"
       y1="4"
       x2="760"
       y2="1024"
       gradientUnits="userSpaceOnUse" />
  </defs>
  <g
     id="shadow"
     transform="matrix(0.99609375,0,0,0.99609375,2,2)">
    <g
       id="shape">
      <path
         id="path"
         d="m 986.739,315.98644 q -9.3288,-22.61695 -21.0441,-44.31186 c -4.3932,-8.18983 -9.0576,-16.32543 -13.9932,-24.29831 C 930.49492,212.98983 904.62373,180.50169 874.08814,149.9661 774.12881,50.00678 653.39661,0 512,0 370.60339,0 249.92542,50.00678 149.9661,149.9661 50.00678,249.92542 0,370.60339 0,512 0,653.39661 50.00678,774.12881 149.9661,874.08814 249.92542,974.04746 370.60339,1024 512,1024 653.39661,1024 774.12881,974.04746 874.08814,874.08814 929.13898,818.98305 969.0576,757.58644 993.7898,689.95254 1013.9119,634.79322 1024,575.51186 1024,512 c 0,-48.70508 -5.9119,-94.96949 -17.7898,-138.79322 -1.356,-4.93559 -2.7661,-9.87119 -4.2305,-14.75254 -4.4475,-14.42712 -9.5458,-28.58305 -15.2407,-42.4678 z"
         style="fill:url(#linearGradient843);fill-opacity:1;stroke-width:1.08474576"
         inkscape:connector-curvature="0" />
    </g>
  </g>
  <circle
     r="470.5"
     cy="512.5"
     cx="511.5"
     id="circle874"
     style="opacity:1;fill:url(#linearGradient876);fill-opacity:1;fill-rule:nonzero;stroke:none;stroke-width:84.01786041;stroke-linecap:square;stroke-linejoin:miter;stroke-miterlimit:4;stroke-dasharray:none;stroke-opacity:0.004717;paint-order:stroke markers fill" />
  <circle
     style="opacity:1;fill:url(#linearGradient856);fill-opacity:1;fill-rule:nonzero;stroke:none;stroke-width:77.13114929;stroke-linecap:square;stroke-linejoin:miter;stroke-miterlimit:4;stroke-dasharray:none;stroke-opacity:0.004717;paint-order:stroke markers fill"
     id="path848"
     cx="511.5"
     cy="512.5"
     r="431.93442" />
  <path
     style="fill:url(#linearGradient890);stroke-width:18.2857151;fill-opacity:1.0"
     d="M 512 512 L 512 982.99805 C 641.72175 982.87989 752.48212 936.87429 844.22852 845.17773 C 936.04313 753.36312 982 642.38774 982 512.5 C 982 512.33302 981.99627 512.16693 981.99609 512 L 512 512 z "
     id="rect8" />
  <path
     inkscape:connector-curvature="0"
     style="fill:#ffffff;stroke-width:10.2857151"
     d="M 740,724 H 616.57142 c -5.67771,0 -10.28571,-4.59772 -10.28571,-10.28572 0,-5.688 4.608,-10.28571 10.28571,-10.28571 H 740 c 5.67771,0 10.28571,4.59771 10.28571,10.28571 0,5.688 -4.608,10.28572 -10.28571,10.28572 z"
     id="path10" />
  <path
     inkscape:connector-curvature="0"
     style="fill:#ffffff;stroke-width:10.2857151"
     d="M 740,662.28571 H 616.57142 c -5.67771,0 -10.28571,-4.59771 -10.28571,-10.28571 0,-5.688 4.608,-10.28572 10.28571,-10.28572 H 740 c 5.67771,0 10.28571,4.59772 10.28571,10.28572 0,5.688 -4.608,10.28571 -10.28571,10.28571 z"
     id="path12" />
  <path
     inkscape:connector-curvature="0"
     style="fill:#ffffff;stroke-width:9.91625404"
     d="m 340,704 c -2.53856,0 -5.07712,-0.97179 -7.01079,-2.90546 -3.87725,-3.87725 -3.87725,-10.14433 0,-14.02158 l 49.58126,-49.58127 c 3.87726,-3.87726 10.14433,-3.87726 14.02159,0 3.87725,3.87725 3.87725,10.14433 0,14.02158 l -49.58127,49.58127 C 345.07712,703.02821 342.53856,704 340,704 Z"
     id="path14" />
  <path
     inkscape:connector-curvature="0"
     style="fill:#ffffff;stroke-width:9.91625404"
     d="m 290.41873,753.58127 c -2.53855,0 -5.07712,-0.97179 -7.01079,-2.90547 -3.87725,-3.87725 -3.87725,-10.14432 0,-14.02158 l 49.58127,-49.58126 c 3.87725,-3.87726 10.14433,-3.87726 14.02158,0 3.87725,3.87725 3.87725,10.14433 0,14.02158 l -49.58126,49.58126 c -1.93368,1.93368 -4.47224,2.90547 -7.0108,2.90547 z"
     id="path16" />
  <path
     inkscape:connector-curvature="0"
     style="fill:#ffffff;stroke-width:9.91625404"
     d="m 389.58127,753.58127 c -2.53856,0 -5.07712,-0.97179 -7.0108,-2.90547 l -49.58126,-49.58126 c -3.87725,-3.87725 -3.87725,-10.14433 0,-14.02158 3.87725,-3.87726 10.14433,-3.87726 14.02158,0 l 49.58127,49.58126 c 3.87725,3.87726 3.87725,10.14433 0,14.02158 -1.93367,1.93368 -4.47224,2.90547 -7.01079,2.90547 z"
     id="path18" />
  <path
     inkscape:connector-curvature="0"
     style="fill:#ffffff;stroke-width:9.91625404"
     d="m 340,704 c -2.53856,0 -5.07712,-0.97179 -7.01079,-2.90546 l -49.58127,-49.58127 c -3.87725,-3.87725 -3.87725,-10.14433 0,-14.02158 3.87726,-3.87726 10.14433,-3.87726 14.02159,0 l 49.58126,49.58127 c 3.87725,3.87725 3.87725,10.14433 0,14.02158 C 345.07712,703.02821 342.53856,704 340,704 Z"
     id="path20" />
  <path
     inkscape:connector-curvature="0"
     style="fill:#f1f1f1;fill-opacity:1;stroke-width:10.2857151"
     d="M 400,344 H 276.57142 c -5.67771,0 -10.28571,-4.59771 -10.28571,-10.28571 0,-5.688 4.608,-10.28571 10.28571,-10.28571 H 400 c 5.67771,0 10.28571,4.59771 10.28571,10.28571 0,5.688 -4.608,10.28571 -10.28571,10.28571 z"
     id="path22" />
  <path
     inkscape:connector-curvature="0"
     style="fill:#ffffff;fill-opacity:1;stroke-width:10.2857151"
     d="M 338.28571,405.71429 C 332.608,405.71429 328,401.11658 328,395.42858 V 272 c 0,-5.688 4.608,-10.28571 10.28571,-10.28571 5.67771,0 10.28571,4.59771 10.28571,10.28571 v 123.42858 c 0,5.688 -4.608,10.28571 -10.28571,10.28571 z"
     id="path24" />
  <path
     inkscape:connector-curvature="0"
     style="fill:#ffffff;stroke-width:10.2857151"
     d="M 740,344 H 616.57142 c -5.67771,0 -10.28571,-4.59771 -10.28571,-10.28571 0,-5.688 4.608,-10.28571 10.28571,-10.28571 H 740 c 5.67771,0 10.28571,4.59771 10.28571,10.28571 0,5.688 -4.608,10.28571 -10.28571,10.28571 z"
     id="path26" />
  <g
     id="g4655"
     style="fill:url(#linearGradient4661);fill-opacity:1"
     transform="matrix(0.99798494,0,0,0.99798494,0.73130767,2.180401)" />
</svg>
