<?xml version="1.0" encoding="UTF-8" standalone="no"?>
<!-- Created with Inkscape (http://www.inkscape.org/) -->

<svg
   xmlns:dc="http://purl.org/dc/elements/1.1/"
   xmlns:cc="http://creativecommons.org/ns#"
   xmlns:rdf="http://www.w3.org/1999/02/22-rdf-syntax-ns#"
   xmlns:svg="http://www.w3.org/2000/svg"
   xmlns="http://www.w3.org/2000/svg"
   xmlns:xlink="http://www.w3.org/1999/xlink"
   xmlns:sodipodi="http://sodipodi.sourceforge.net/DTD/sodipodi-0.dtd"
   xmlns:inkscape="http://www.inkscape.org/namespaces/inkscape"
   width="200"
   height="200"
   id="svg2"
   version="1.1"
   inkscape:version="0.92.2 2405546, 2018-03-11"
   sodipodi:docname="file-manager.svg">
  <defs
     id="defs4">
    <linearGradient
       id="linearGradient3912">
      <stop
         style="stop-color:#f4f3f3;stop-opacity:1;"
         offset="0"
         id="stop3914" />
      <stop
         style="stop-color:#f4f3f3;stop-opacity:1;"
         offset="1"
         id="stop3916" />
    </linearGradient>
    <linearGradient
       id="linearGradient3843">
      <stop
         style="stop-color:#16d4ff;stop-opacity:1;"
         offset="0"
         id="stop3845" />
      <stop
         style="stop-color:#1f73f3;stop-opacity:1;"
         offset="1"
         id="stop3847" />
    </linearGradient>
    <linearGradient
       inkscape:collect="always"
       xlink:href="#linearGradient3843"
       id="linearGradient3849"
       x1="71.875"
       y1="9.765625"
       x2="71.875"
       y2="189.08974"
       gradientUnits="userSpaceOnUse"
       gradientTransform="matrix(1,0,0,0.94925765,0,857.37036)" />
    <linearGradient
       inkscape:collect="always"
       xlink:href="#linearGradient3912"
       id="linearGradient3918"
       x1="172.24121"
       y1="4.0527329"
       x2="172.24121"
       y2="193.3853"
       gradientUnits="userSpaceOnUse"
       gradientTransform="matrix(1,0,0,0.94925765,0,857.37036)" />
    <linearGradient
       inkscape:collect="always"
       xlink:href="#linearGradient3912-0"
       id="linearGradient3918-1"
       x1="172.24121"
       y1="4.0527329"
       x2="172.24121"
       y2="193.3853"
       gradientUnits="userSpaceOnUse" />
    <linearGradient
       id="linearGradient3912-0">
      <stop
         style="stop-color:#f4f3f3;stop-opacity:1;"
         offset="0"
         id="stop3914-1" />
      <stop
         style="stop-color:#f4f3f3;stop-opacity:1;"
         offset="1"
         id="stop3916-9" />
    </linearGradient>
  </defs>
  <sodipodi:namedview
     id="base"
     pagecolor="#ffffff"
     bordercolor="#666666"
     borderopacity="1.0"
     inkscape:pageopacity="0.0"
     inkscape:pageshadow="2"
     inkscape:zoom="1.69"
     inkscape:cx="68.945825"
     inkscape:cy="77.157336"
     inkscape:document-units="px"
     inkscape:current-layer="layer1"
     showgrid="false"
     inkscape:window-width="1278"
     inkscape:window-height="748"
     inkscape:window-x="0"
     inkscape:window-y="24"
     inkscape:window-maximized="0">
    <sodipodi:guide
       position="0,0"
       orientation="0,200"
       id="guide3764"
       inkscape:locked="false" />
    <sodipodi:guide
       position="200,0"
       orientation="-200,0"
       id="guide3766"
       inkscape:locked="false" />
    <sodipodi:guide
       position="200,200"
       orientation="0,-200"
       id="guide3768"
       inkscape:locked="false" />
    <sodipodi:guide
       position="0,200"
       orientation="200,0"
       id="guide3770"
       inkscape:locked="false" />
  </sodipodi:namedview>
  <metadata
     id="metadata7">
    <rdf:RDF>
      <cc:Work
         rdf:about="">
        <dc:format>image/svg+xml</dc:format>
        <dc:type
           rdf:resource="http://purl.org/dc/dcmitype/StillImage" />
        <dc:title />
      </cc:Work>
    </rdf:RDF>
  </metadata>
  <g
     inkscape:label="Layer 1"
     inkscape:groupmode="layer"
     id="layer1"
     transform="translate(0,-852.36218)">
    <path
       style="fill:url(#linearGradient3849);fill-opacity:1"
       d="m 17,861.21745 90.51172,0 c 0,0 65.92578,7.19727 65.92578,16.13738 l 0,147.40287 c 0,8.9401 -49.61719,16.1374 -49.61719,16.1374 l -106.82031,0 c -9.418,0 -17,-7.1973 -17,-16.1374 L 0,877.35483 c 0,-8.94011 7.582,-16.13738 17,-16.13738 z"
       id="rect3772"
       inkscape:connector-curvature="0"
       sodipodi:nodetypes="scsscssss" />
    <path
       inkscape:connector-curvature="0"
       style="fill:#000000;fill-opacity:0.31073447;stroke:none"
       d="m 105.125,861.22672 c -5.63845,10.35062 -20,45.13796 -20,92.25598 l 25.34375,0 c 0,0 -1.33096,58.8834 7.40625,87.4207 l 63.125,0 c 9.418,0 17,-7.1973 17,-16.1374 l 0,-147.4019 c 0,-8.94011 -7.582,-16.13738 -17,-16.13738 z"
       id="path3811-5"
       sodipodi:nodetypes="ccccssssc" />
    <path
       style="fill:url(#linearGradient3918);fill-opacity:1;stroke:none"
       d="m 107.125,861.22672 c -5.63845,10.35062 -20,41.34093 -20,88.45895 l 27.34375,0 c 0,0 -1.33096,62.68043 7.40625,91.21773 l 61.125,0 c 9.418,0 17,-7.1973 17,-16.1374 l 0,-147.4019 c 0,-8.94011 -7.582,-16.13738 -17,-16.13738 l -75.875,0 z"
       id="path3811"
       inkscape:connector-curvature="0" />
    <path
       style="opacity:1;fill:#1b1b1b;fill-opacity:1;stroke:#ffffff;stroke-width:0.02212123;stroke-linecap:round;stroke-miterlimit:4;stroke-dasharray:none;stroke-dashoffset:0;stroke-opacity:0.50898204"
       d="m 54.096926,898.25042 c -2.71412,0 -4.899497,2.1852 -4.899497,4.8996 v 13.3991 c 0,2.7143 2.185377,4.8996 4.899497,4.8996 2.714118,0 4.899491,-2.1853 4.899491,-4.8996 v -13.3991 c 0,-2.7144 -2.185373,-4.8996 -4.899491,-4.8996 z m 90.777414,0 c -2.71417,0 -4.89964,2.1852 -4.89964,4.8996 v 13.3991 c 0,2.7143 2.18547,4.8996 4.89964,4.8996 2.71383,0 4.89947,-2.1853 4.89947,-4.8996 v -13.3991 c 0,-2.7144 -2.18564,-4.8996 -4.89947,-4.8996 z m -104.787461,73.2532 a 3.6872253,3.6872253 0 0 0 -2.586562,6.1639 c 16.668594,18.879 41.011453,26.45668 64.349873,25.62178 23.33872,-0.8331 45.91792,-9.93818 59.65543,-25.32248 a 3.6872943,3.6872943 0 1 0 -5.50178,-4.9107 c -11.99468,13.4326 -32.84843,22.0942 -54.41549,22.8673 -21.56737,0.7729 -43.603638,-6.1949 -58.560629,-23.1355 a 3.6872253,3.6872253 0 0 0 -2.940842,-1.2843 z"
       id="rect1204"
       inkscape:connector-curvature="0" />
  </g>
</svg>
